<?xml version="1.0" encoding="UTF-8"?>
<svg xmlns="http://www.w3.org/2000/svg" style="display: none;">
  <!-- Linux Hardening Icon -->
  <symbol id="linux-icon" viewBox="0 0 24 24">
    <path fill="#000000" d="M12,2L2,7L12,12L22,7L12,2M2,17L12,22L22,17V12L12,17L2,12V17Z"/>
  </symbol>

  <!-- Wireshark Icon -->
  <symbol id="wireshark-icon" viewBox="0 0 24 24">
    <path fill="#1679A7" d="M12,2A10,10 0 0,1 22,12A10,10 0 0,1 12,22A10,10 0 0,1 2,12A10,10 0 0,1 12,2M12,4A8,8 0 0,0 4,12A8,8 0 0,0 12,20A8,8 0 0,0 20,12A8,8 0 0,0 12,4M12,6A6,6 0 0,1 18,12A6,6 0 0,1 12,18A6,6 0 0,1 6,12A6,6 0 0,1 12,6M12,8A4,4 0 0,0 8,12A4,4 0 0,0 12,16A4,4 0 0,0 16,12A4,4 0 0,0 12,8Z"/>
  </symbol>

  <!-- Metasploit Icon -->
  <symbol id="metasploit-icon" viewBox="0 0 24 24">
    <path fill="#000000" d="M12,2L2,7L12,12L22,7L12,2M2,17L12,22L22,17V12L12,17L2,12V17Z"/>
  </symbol>

  <!-- Kali Linux Icon -->
  <symbol id="kali-icon" viewBox="0 0 24 24">
    <path fill="#000000" d="M12,2L2,7L12,12L22,7L12,2M2,17L12,22L22,17V12L12,17L2,12V17Z"/>
  </symbol>

  <!-- Cryptography Icon -->
  <symbol id="crypto-icon" viewBox="0 0 24 24">
    <path fill="#000000" d="M12,2L2,7L12,12L22,7L12,2M2,17L12,22L22,17V12L12,17L2,12V17Z"/>
  </symbol>
</svg> 